<svg xmlns="http://www.w3.org/2000/svg" width="1024" height="1024" viewBox="0 0 1024 1024" version="1.1"><path d="M 663.500 150.109 C 649.047 152.191, 628.380 160.196, 618.312 167.611 C 603.985 178.163, 593.241 190.597, 585.989 205.021 C 580.951 215.042, 578.498 222.762, 576.439 235.071 C 573.659 251.697, 575.714 261.515, 583.614 269.357 C 591.992 277.672, 601.270 282.366, 615.652 285.566 C 626.777 288.041, 635.203 287.192, 644.342 282.676 C 651.661 279.058, 654.763 276.200, 669.183 259.787 C 673.290 255.112, 676.890 252.255, 682.170 249.480 C 693.718 243.412, 697.740 243.506, 749 251.052 C 756.425 252.145, 763.625 253.264, 765 253.538 C 770.959 254.727, 773.078 255.067, 783.424 256.494 C 789.432 257.322, 796.900 258, 800.019 258 C 806.872 258, 809 256.179, 809.732 249.689 C 810.290 244.737, 809.285 243.667, 799.410 238.692 C 792.234 235.078, 788.810 230.681, 781.997 216.331 C 774.190 199.887, 766.966 189.220, 757.343 179.925 C 744.972 167.976, 733.769 161.145, 716.625 155.098 C 701.016 149.593, 680.470 147.663, 663.500 150.109" stroke="none" fill="#006bd6" fill-rule="evenodd"/><path d="" stroke="none" fill="#000000" fill-rule="evenodd"/><path d="M 403 141.747 C 403 142.304, 405.552 144.686, 408.671 147.041 C 428.553 162.053, 436.341 174.905, 440.548 199.650 C 442.559 211.479, 445.106 218.711, 449.746 225.760 C 459.596 240.726, 481.612 252.918, 507 257.466 C 518.323 259.495, 538.555 260.555, 541.834 259.293 C 544.050 258.439, 543.885 258.207, 538.553 254.667 C 526.012 246.340, 517.051 234.684, 509.105 216.365 C 499.290 193.735, 493.769 184.806, 482.093 172.681 C 471.732 161.922, 464.465 156.586, 451.944 150.544 C 437.940 143.787, 430.611 141.910, 415.750 141.277 C 407.454 140.924, 403 141.088, 403 141.747 M 278.999 176.661 C 279 181.396, 282.283 191.025, 286.415 198.414 C 293.876 211.756, 305.548 221.539, 327.637 232.966 C 340.876 239.814, 346.998 245.218, 351.207 253.772 C 354.114 259.680, 354.497 261.403, 354.470 268.482 C 354.445 275.427, 354.050 277.212, 351.521 281.824 C 346.159 291.602, 336.862 296.541, 324 296.443 C 308.912 296.329, 298.187 291.999, 275.993 277.061 C 261.023 266.985, 247.445 259.524, 238.833 256.642 C 232.464 254.510, 221.166 252.501, 220.318 253.349 C 219.937 253.730, 221.449 255.945, 223.679 258.271 C 240.367 275.679, 246.964 289.370, 255.578 324.469 C 262.302 351.866, 264.818 360.383, 269.447 371.401 C 281.711 400.595, 299.841 419.840, 329.906 435.577 L 339.312 440.500 333.406 440.809 C 313.873 441.831, 292.380 434.647, 272.500 420.453 C 267.550 416.918, 259 410.832, 253.500 406.927 C 241.246 398.227, 224.166 389.705, 213.590 387.013 C 200.393 383.654, 183.799 384.751, 177.483 389.398 C 175.507 390.852, 175.507 390.860, 177.500 391.517 C 198.743 398.521, 217.749 416.532, 230.273 441.528 C 234.647 450.256, 236.408 455.361, 242.927 478.215 C 251.288 507.524, 265.802 528.935, 287.456 543.904 C 294.980 549.106, 308.959 556.216, 314.250 557.533 C 318.959 558.704, 317.277 559.991, 310.750 560.211 C 289.296 560.934, 278.684 557.562, 259.204 543.834 C 245.719 534.331, 235.923 528.905, 225.887 525.379 C 212.103 520.537, 192.247 521.155, 179.583 526.819 L 175.667 528.571 184.310 533.422 C 204.059 544.506, 216.333 561.291, 228.973 594.500 C 239.629 622.496, 247.793 637.042, 260.673 650.976 C 267.483 658.344, 282.043 670, 284.435 670 C 285.261 670, 286.116 667.002, 286.910 661.329 C 290.123 638.363, 300.334 610.191, 311.313 594 C 316.196 586.799, 326.137 574.875, 326.986 575.201 C 327.413 575.366, 337.496 584.950, 349.391 596.500 C 361.286 608.050, 371.538 617.674, 372.172 617.888 C 372.807 618.101, 373.940 617.426, 374.691 616.388 C 375.442 615.349, 379.631 610.882, 384 606.461 L 391.944 598.421 368.517 575.717 L 345.090 553.014 351.795 547.741 C 375.375 529.200, 397.546 518.004, 423.330 511.617 C 428.730 510.279, 433.296 509.031, 433.476 508.842 C 433.657 508.654, 443.998 495.675, 456.458 480 C 468.917 464.325, 488.311 439.939, 499.555 425.809 C 510.800 411.679, 519.995 399.754, 519.989 399.309 C 519.982 398.864, 518.295 397.716, 516.239 396.758 C 514.182 395.800, 504.517 391.188, 494.761 386.508 C 485.004 381.829, 476.534 378, 475.938 378 C 475.342 378, 467.867 383.962, 459.327 391.250 C 400.436 441.500, 400.790 441.252, 388 441.408 C 381.864 441.483, 379.500 441.025, 375 438.890 C 362.216 432.823, 354.586 421.674, 354.529 408.979 C 354.505 403.577, 355.071 401.299, 357.825 395.703 C 360.889 389.479, 362.539 387.766, 378.825 373.888 C 388.546 365.604, 408.365 348.628, 422.866 336.164 C 455.141 308.420, 455.212 308.363, 461.992 305.197 C 469.643 301.623, 477.080 301.788, 487 305.752 C 494.824 308.877, 584.728 349.419, 595.920 354.867 C 599.451 356.587, 602.565 357.768, 602.841 357.493 C 603.825 356.509, 593.896 338.034, 589.314 332.322 C 582.820 324.227, 572.708 315.492, 563.926 310.391 C 555.387 305.431, 546.172 302.354, 526.731 297.972 C 490.572 289.821, 470.563 280.187, 448.673 260.388 C 427.220 240.984, 423.188 237.607, 415.095 232.270 C 397.051 220.370, 382.412 215.135, 347 207.920 C 327.877 204.023, 317.518 200.812, 306.035 195.221 C 298.311 191.460, 294.955 189.038, 287.785 182.056 C 279.062 173.561, 278.999 173.523, 278.999 176.661 M 136 291.402 C 136 291.784, 139.130 295.183, 142.956 298.956 C 148.972 304.889, 150.750 307.551, 156.115 318.658 C 165.371 337.818, 169.796 343.569, 180 349.705 C 188.614 354.884, 202.690 356.457, 213.068 353.400 C 218.453 351.815, 234.473 343.661, 235.514 341.977 C 236.049 341.112, 234.240 340.696, 224.569 339.456 C 209.429 337.514, 198.858 331.353, 188.285 318.310 C 184.358 313.464, 179.425 307.841, 177.322 305.813 C 172.202 300.873, 162.909 295.406, 156.432 293.523 C 150.582 291.823, 136 290.308, 136 291.402 M 105 407.529 C 105 408.300, 106.279 410.409, 107.842 412.215 C 116.990 422.790, 126.922 441.036, 133.036 458.500 C 137.893 472.372, 141.508 479.229, 146.790 484.587 C 155.581 493.504, 167.385 497.872, 179.322 496.624 C 190.231 495.484, 199.038 489.788, 204.701 480.209 C 207.480 475.509, 213.113 458.992, 212.355 457.766 C 212.095 457.345, 209.279 457, 206.098 457 C 195.399 457, 184.633 452.041, 167 438.993 C 150.568 426.833, 140.325 420.274, 129.500 414.979 C 117.642 409.180, 105 405.335, 105 407.529" stroke="none" fill="#fb500a" fill-rule="evenodd"/><path d="M 689.500 246.402 C 679.401 249.604, 673.824 254.076, 659.659 270.328 C 644.648 287.550, 629.831 290.819, 604.372 282.524 C 602.329 281.858, 602.249 282.113, 602.372 288.912 C 602.442 292.806, 602.888 295.994, 603.361 295.996 C 603.835 295.998, 603.933 297.544, 603.579 299.432 C 603.133 301.807, 603.350 303.116, 604.282 303.682 C 605.022 304.132, 606.656 307.067, 607.912 310.204 C 621.363 343.809, 656.432 365.788, 693.280 363.707 C 711.436 362.682, 728.108 356.019, 742.750 343.936 C 755.556 333.368, 766.184 316.418, 770.612 299.500 C 773.177 289.697, 773.166 269.881, 770.589 261.223 C 769.562 257.770, 768.281 254.674, 767.743 254.341 C 765.812 253.148, 706.361 245.014, 700 245.073 C 696.425 245.107, 691.700 245.705, 689.500 246.402 M 463.818 304.403 C 457.833 306.540, 455.999 307.992, 414.417 343.500 C 392.519 362.200, 371.572 380.082, 367.870 383.238 C 354.617 394.532, 351.017 408.462, 357.792 422.228 C 363.715 434.261, 375.038 441.565, 387.500 441.388 C 400.484 441.204, 401.879 440.251, 452.358 397.059 C 464.930 386.301, 475.710 377.643, 476.314 377.819 C 480.094 378.916, 520 398.508, 520 399.266 C 520 399.779, 512.252 409.941, 502.782 421.849 C 493.312 433.757, 474.130 457.900, 460.157 475.500 C 446.183 493.100, 434.430 507.854, 434.039 508.286 C 433.649 508.718, 428.380 510.370, 422.331 511.957 C 397.311 518.521, 375.030 529.716, 353.301 546.642 L 345.103 553.028 368.106 575.264 C 380.758 587.494, 391.725 597.443, 392.478 597.374 C 393.231 597.304, 397.819 594.747, 402.674 591.691 C 413.065 585.148, 425.521 579.841, 437.723 576.757 C 445.290 574.845, 449.120 574.543, 465.500 574.567 C 483.099 574.594, 485.237 574.799, 494.500 577.351 C 533.409 588.069, 563.515 617.593, 574.499 655.803 C 575.970 660.920, 576.945 665.702, 576.665 666.431 C 576.385 667.160, 576.684 668.284, 577.328 668.928 C 579.215 670.815, 578.704 700.807, 576.628 710 C 572.692 727.431, 565.244 743.917, 555.416 756.950 L 549.799 764.400 556.149 770.412 C 559.642 773.720, 566.775 780.460, 572 785.390 C 577.225 790.321, 584.689 797.407, 588.587 801.136 C 596.940 809.126, 596.412 809.233, 605.904 797.617 C 632.626 764.916, 644.959 730.776, 644.962 689.500 C 644.965 660.778, 638.522 633.151, 626.496 610.310 L 622.184 602.121 627.342 601.602 C 637.954 600.535, 672.561 600.111, 674.015 601.031 C 675.270 601.824, 675.229 601.972, 673.750 601.985 C 672.788 601.993, 672 602.477, 672 603.059 C 672 603.641, 672.450 603.840, 673 603.500 C 674.364 602.657, 674.415 601.643, 671.321 636.750 C 669.013 662.949, 668.320 668.002, 667.034 668.015 C 665.789 668.028, 665.756 668.193, 666.860 668.893 C 668.376 669.853, 668.377 669.834, 663.065 727.699 C 661.439 745.408, 660.318 761.608, 660.573 763.699 C 660.927 766.603, 660.813 767.028, 660.089 765.500 C 659.177 763.577, 659.138 763.587, 659.070 765.750 C 659.031 767, 659.596 768, 660.342 768 C 661.080 768, 662.195 769.707, 662.820 771.793 C 664.191 776.368, 669.331 783.760, 673.662 787.384 C 675.402 788.840, 679.452 791.253, 682.662 792.747 C 687.710 795.096, 689.786 795.466, 698 795.482 C 706.198 795.498, 708.271 795.139, 713.120 792.865 C 719.553 789.849, 726.240 784.165, 729.579 778.874 C 733.486 772.686, 734.786 765.504, 737.434 735.500 C 738.841 719.550, 742.763 676.575, 746.150 640 C 749.537 603.425, 752.351 568.550, 752.404 562.500 C 752.488 552.907, 752.204 550.900, 750.187 546.805 C 745.260 536.800, 735.387 529.964, 722.810 527.846 C 718.533 527.125, 697.699 526.995, 658.158 527.442 C 600.857 528.090, 599.839 528.068, 601.158 526.191 C 601.896 525.141, 607.675 518.447, 614 511.316 C 620.325 504.185, 633.150 489.643, 642.500 479 C 651.850 468.357, 662.325 456.466, 665.777 452.575 C 676.180 440.849, 680.252 430.337, 679.418 417.356 C 678.406 401.593, 670.306 390.633, 652 380.257 C 645.968 376.838, 616.606 363.410, 605.500 358.991 C 601.650 357.459, 582.750 349.031, 563.500 340.262 C 496.224 309.615, 487.469 305.706, 483.091 304.358 C 477.571 302.658, 468.646 302.679, 463.818 304.403 M 320.263 582.267 C 303.771 602.224, 292.562 628.396, 287.415 658.964 C 276.382 724.500, 303.093 789.919, 357.591 830.838 C 380.291 847.882, 409.323 860.117, 436.500 864.094 C 447.956 865.771, 473 867.610, 473 866.775 C 473 866.349, 474.575 866, 476.500 866 C 478.425 866, 480 866.450, 480 867 C 480 867.550, 480.788 867.993, 481.750 867.985 C 483.134 867.973, 483.212 867.787, 482.121 867.096 C 481.189 866.505, 482.482 865.999, 486.121 865.531 C 514.784 861.842, 541.576 851.959, 563.156 837.112 C 576.067 828.230, 577 827.503, 577 826.318 C 577 824.886, 533.429 782.122, 531.049 781.218 C 530.641 781.062, 527.425 782.573, 523.903 784.574 C 513.697 790.373, 507.286 792.935, 495 796.124 C 467.958 803.144, 438.840 800.390, 414.371 788.499 C 395.152 779.158, 380.092 765.882, 368.370 747.944 C 351.427 722.019, 346.011 685.941, 354.601 656.225 C 357.429 646.445, 364.219 631.450, 368.903 624.642 C 370.606 622.166, 371.996 619.771, 371.992 619.320 C 371.984 618.458, 329.658 577.034, 327.493 575.767 C 326.676 575.290, 324.162 577.550, 320.263 582.267" stroke="none" fill="#fbfbfb" fill-rule="evenodd"/></svg>