<svg xmlns="http://www.w3.org/2000/svg" width="1024" height="1024" viewBox="0 0 1024 1024" version="1.1"><path d="M 663.500 150.109 C 649.047 152.191, 628.380 160.196, 618.312 167.611 C 603.985 178.163, 593.241 190.597, 585.989 205.021 C 580.951 215.042, 578.498 222.762, 576.439 235.071 C 573.659 251.697, 575.714 261.515, 583.614 269.357 C 591.992 277.672, 601.270 282.366, 615.652 285.566 C 633.008 289.427, 646.497 284.960, 658.674 271.319 C 671.366 257.100, 677.411 251.544, 683.500 248.500 C 689.211 245.644, 690.077 245.504, 701.500 245.591 C 712.879 245.677, 746.491 250.040, 769.500 254.416 C 777.629 255.963, 794.980 258, 800.019 258 C 806.872 258, 809 256.179, 809.732 249.689 C 810.290 244.737, 809.285 243.667, 799.410 238.692 C 792.234 235.078, 788.810 230.681, 781.997 216.331 C 774.190 199.887, 766.966 189.220, 757.343 179.925 C 744.972 167.976, 733.769 161.145, 716.625 155.098 C 701.016 149.593, 680.470 147.663, 663.500 150.109" stroke="none" fill="#006ad4" fill-rule="evenodd"/><path d="M 688.024 246.590 C 680.899 249.197, 673.728 254.300, 668.419 260.541 C 656.285 274.805, 651.648 279.065, 644.303 282.695 C 632.888 288.337, 622.965 288.272, 604.116 282.435 C 601.740 281.699, 601.734 281.716, 602.437 287.598 C 605.544 313.598, 619.281 335.423, 641.791 350.125 C 668.757 367.736, 703.516 368.397, 731.311 351.828 C 757.779 336.049, 774.631 305.150, 772.667 276 C 772.092 267.479, 769.657 256.261, 768.027 254.628 C 767.548 254.149, 762.959 253.126, 757.828 252.354 C 707.460 244.782, 695.634 243.805, 688.024 246.590 M 467.746 303.075 C 461.651 304.529, 454.937 308.456, 447.919 314.671 C 444.299 317.877, 432.407 328.150, 421.491 337.500 C 402.117 354.095, 398.786 356.925, 374.499 377.414 C 361.972 387.983, 357.876 393.219, 355.345 401.902 C 351.288 415.817, 359.687 431.623, 375 438.890 C 379.500 441.025, 381.864 441.483, 388 441.408 C 400.753 441.252, 401.899 440.446, 459.349 391.250 C 467.859 383.962, 475.287 378, 475.854 378 C 476.422 378, 484.899 381.828, 494.693 386.506 C 504.487 391.184, 514.182 395.797, 516.239 396.756 C 518.295 397.715, 519.982 398.831, 519.989 399.235 C 519.995 399.639, 507.041 416.289, 491.203 436.235 C 475.365 456.181, 456.174 480.375, 448.557 490 C 440.940 499.625, 434.377 507.874, 433.972 508.331 C 433.568 508.789, 428.799 510.262, 423.375 511.606 C 397.545 518.004, 375.390 529.188, 351.798 547.739 L 345.096 553.009 368.292 575.504 C 381.049 587.877, 391.768 598, 392.111 598 C 392.454 598, 395.832 595.906, 399.618 593.347 C 447.455 561.004, 514.013 569.310, 551.079 612.248 C 586.346 653.101, 588.337 712.800, 555.896 756.634 L 550.074 764.500 554.287 768.440 C 556.604 770.606, 566.721 780.169, 576.768 789.690 C 586.816 799.210, 595.676 807, 596.459 807 C 599.637 807, 620.309 779.195, 627.098 765.788 C 650.934 718.717, 650.924 660.493, 627.071 611.720 C 624.441 606.341, 622.561 601.780, 622.894 601.585 C 623.227 601.390, 635.137 600.902, 649.360 600.499 L 675.220 599.768 674.591 604.634 C 671.975 624.874, 660.919 754.892, 661.252 761.500 C 662.535 786.943, 687.488 802.272, 712.431 792.940 C 723.044 788.969, 731.458 778.705, 733.977 766.655 C 734.570 763.820, 737.058 738.550, 739.506 710.500 C 741.955 682.450, 745.792 639.925, 748.032 616 C 753.717 555.303, 753.655 556.663, 751.054 549.798 C 748.300 542.534, 741.378 534.817, 734.703 531.570 C 725.694 527.188, 718.995 526.845, 657.250 527.603 C 625.763 527.989, 600 527.975, 600 527.571 C 600 527.168, 604.837 521.386, 610.750 514.723 C 661.784 457.215, 673.212 443.766, 675.860 438.101 C 678.225 433.042, 678.479 431.339, 678.489 420.500 C 678.499 409.452, 678.284 408.060, 675.779 402.959 C 669.116 389.394, 659.411 382.884, 620 365.547 C 610.375 361.313, 599.575 356.475, 596 354.795 C 578.883 346.754, 493.669 308.425, 487.500 305.993 C 479.304 302.762, 472.977 301.827, 467.746 303.075 M 320.968 581.229 C 293.721 613.838, 280.296 663.901, 286.438 710 C 296.098 782.508, 349.823 842.962, 420.096 860.398 C 439.030 865.097, 450.515 866.281, 471.500 865.698 C 499.161 864.930, 518.261 860.522, 541.719 849.491 C 551.431 844.924, 572.117 831.778, 575.485 828.031 L 577.470 825.823 564.985 813.661 C 558.118 806.972, 547.713 796.866, 541.861 791.203 L 531.223 780.907 521.861 785.898 C 510.533 791.938, 497.662 796.361, 484.961 798.580 C 471.296 800.966, 449.054 800.085, 435.706 796.629 C 393.083 785.592, 360.886 751.501, 352.355 708.372 C 350.008 696.507, 350.044 674.499, 352.428 663.500 C 354.923 651.986, 361.153 636.788, 367.324 627.161 L 372.669 618.823 353.085 600.018 C 342.313 589.676, 332.178 579.816, 330.563 578.107 C 328.948 576.398, 327.299 575, 326.899 575 C 326.500 575, 323.831 577.803, 320.968 581.229" stroke="none" fill="#040404" fill-rule="evenodd"/><path d="M 403 141.747 C 403 142.304, 405.552 144.686, 408.671 147.041 C 428.553 162.053, 436.341 174.905, 440.548 199.650 C 442.559 211.479, 445.106 218.711, 449.746 225.760 C 459.596 240.726, 481.612 252.918, 507 257.466 C 518.323 259.495, 538.555 260.555, 541.834 259.293 C 544.050 258.439, 543.885 258.207, 538.553 254.667 C 526.012 246.340, 517.051 234.684, 509.105 216.365 C 499.290 193.735, 493.769 184.806, 482.093 172.681 C 471.732 161.922, 464.465 156.586, 451.944 150.544 C 437.940 143.787, 430.611 141.910, 415.750 141.277 C 407.454 140.924, 403 141.088, 403 141.747 M 278.999 176.661 C 279 181.396, 282.283 191.025, 286.415 198.414 C 293.876 211.756, 305.548 221.539, 327.637 232.966 C 340.876 239.814, 346.998 245.218, 351.207 253.772 C 354.114 259.680, 354.497 261.403, 354.470 268.482 C 354.445 275.427, 354.050 277.212, 351.521 281.824 C 346.159 291.602, 336.862 296.541, 324 296.443 C 308.912 296.329, 298.187 291.999, 275.993 277.061 C 261.023 266.985, 247.445 259.524, 238.833 256.642 C 232.464 254.510, 221.166 252.501, 220.318 253.349 C 219.937 253.730, 221.449 255.945, 223.679 258.271 C 240.367 275.679, 246.964 289.370, 255.578 324.469 C 262.302 351.866, 264.818 360.383, 269.447 371.401 C 281.711 400.595, 299.841 419.840, 329.906 435.577 L 339.312 440.500 333.406 440.809 C 313.873 441.831, 292.380 434.647, 272.500 420.453 C 267.550 416.918, 259 410.832, 253.500 406.927 C 241.246 398.227, 224.166 389.705, 213.590 387.013 C 200.393 383.654, 183.799 384.751, 177.483 389.398 C 175.507 390.852, 175.507 390.860, 177.500 391.517 C 198.743 398.521, 217.749 416.532, 230.273 441.528 C 234.647 450.256, 236.408 455.361, 242.927 478.215 C 251.288 507.524, 265.802 528.935, 287.456 543.904 C 294.980 549.106, 308.959 556.216, 314.250 557.533 C 318.959 558.704, 317.277 559.991, 310.750 560.211 C 289.296 560.934, 278.684 557.562, 259.204 543.834 C 245.719 534.331, 235.923 528.905, 225.887 525.379 C 212.103 520.537, 192.247 521.155, 179.583 526.819 L 175.667 528.571 184.310 533.422 C 204.059 544.506, 216.333 561.291, 228.973 594.500 C 239.629 622.496, 247.793 637.042, 260.673 650.976 C 267.483 658.344, 282.043 670, 284.435 670 C 285.261 670, 286.116 667.002, 286.910 661.329 C 291.231 630.443, 304.672 599.603, 322.782 579.028 L 326.718 574.556 348.922 596.028 C 361.135 607.838, 371.622 617.674, 372.226 617.888 C 372.831 618.101, 373.940 617.426, 374.691 616.388 C 375.442 615.349, 379.631 610.882, 384 606.461 L 391.944 598.421 368.517 575.717 L 345.090 553.014 351.795 547.741 C 361.921 539.779, 364.748 537.812, 374 532.294 C 391.324 521.962, 405.433 516.050, 423.375 511.606 C 428.799 510.262, 433.568 508.789, 433.972 508.331 C 434.377 507.874, 440.940 499.625, 448.557 490 C 456.174 480.375, 475.365 456.181, 491.203 436.235 C 507.041 416.289, 519.995 399.639, 519.989 399.235 C 519.982 398.831, 518.295 397.715, 516.239 396.756 C 514.182 395.797, 504.487 391.184, 494.693 386.506 C 484.899 381.828, 476.422 378, 475.854 378 C 475.287 378, 467.859 383.962, 459.349 391.250 C 401.899 440.446, 400.753 441.252, 388 441.408 C 381.864 441.483, 379.500 441.025, 375 438.890 C 359.687 431.623, 351.288 415.817, 355.345 401.902 C 357.876 393.219, 361.972 387.983, 374.499 377.414 C 398.786 356.925, 402.117 354.095, 421.491 337.500 C 432.407 328.150, 444.299 317.861, 447.919 314.635 C 461.607 302.437, 472.509 299.960, 487 305.754 C 494.949 308.933, 585.031 349.545, 595.920 354.860 C 599.451 356.583, 602.565 357.768, 602.841 357.493 C 603.825 356.509, 593.896 338.034, 589.314 332.322 C 582.820 324.227, 572.708 315.492, 563.926 310.391 C 555.387 305.431, 546.172 302.354, 526.731 297.972 C 490.572 289.821, 470.563 280.187, 448.673 260.388 C 427.220 240.984, 423.188 237.607, 415.095 232.270 C 397.051 220.370, 382.412 215.135, 347 207.920 C 327.877 204.023, 317.518 200.812, 306.035 195.221 C 298.311 191.460, 294.955 189.038, 287.785 182.056 C 279.062 173.561, 278.999 173.523, 278.999 176.661 M 136 291.402 C 136 291.784, 139.130 295.183, 142.956 298.956 C 148.972 304.889, 150.750 307.551, 156.115 318.658 C 165.371 337.818, 169.796 343.569, 180 349.705 C 188.614 354.884, 202.690 356.457, 213.068 353.400 C 218.453 351.815, 234.473 343.661, 235.514 341.977 C 236.049 341.112, 234.240 340.696, 224.569 339.456 C 209.429 337.514, 198.858 331.353, 188.285 318.310 C 184.358 313.464, 179.425 307.841, 177.322 305.813 C 172.202 300.873, 162.909 295.406, 156.432 293.523 C 150.582 291.823, 136 290.308, 136 291.402 M 105 407.529 C 105 408.300, 106.279 410.409, 107.842 412.215 C 116.990 422.790, 126.922 441.036, 133.036 458.500 C 137.893 472.372, 141.508 479.229, 146.790 484.587 C 155.581 493.504, 167.385 497.872, 179.322 496.624 C 190.231 495.484, 199.038 489.788, 204.701 480.209 C 207.480 475.509, 213.113 458.992, 212.355 457.766 C 212.095 457.345, 209.279 457, 206.098 457 C 195.399 457, 184.633 452.041, 167 438.993 C 150.568 426.833, 140.325 420.274, 129.500 414.979 C 117.642 409.180, 105 405.335, 105 407.529" stroke="none" fill="#fb500a" fill-rule="evenodd"/></svg>